<svg xmlns="http://www.w3.org/2000/svg" viewBox="0 0 24 24">
  <!-- Define the linear gradient -->
  <defs>
    <linearGradient id="gradient" x1="0%" y1="0%" x2="100%" y2="100%">
      <stop offset="0%" stop-color="#1a6dff"/>
      <stop offset="100%" stop-color="#c822ff"/>
    </linearGradient>
  </defs>

  <path fill="url(#gradient)" d="M19,4H5A3,3,0,0,0,2,7V17a3,3,0,0,0,3,3H19a3,3,0,0,0,3-3V7A3,3,0,0,0,19,4ZM5,6H19a1,1,0,0,1,1,1l-8,4.88L4,7A1,1,0,0,1,5,6ZM20,17a1,1,0,0,1-1,1H5a1,1,0,0,1-1-1V9.28l7.48,4.57a1,1,0,0,0,1,0L20,9.28Z"/>
</svg>
